<?xml version="1.0" encoding="UTF-8"?>
<svg width="341px" height="337px" viewBox="0 0 341 337" version="1.1" xmlns="http://www.w3.org/2000/svg" xmlns:xlink="http://www.w3.org/1999/xlink">
    <!-- Generator: Sketch 59 (86127) - https://sketch.com -->
    <title>Group 2 Copy</title>
    <desc>Created with Sketch.</desc>
    <defs>
        <linearGradient x1="-10745.5407%" y1="-3496.40285%" x2="-10743.5913%" y2="-3497.76059%" id="linearGradient-1">
            <stop stop-color="#1A237E" stop-opacity="0.4" offset="0%"></stop>
            <stop stop-color="#1A237E" stop-opacity="0" offset="100%"></stop>
        </linearGradient>
    </defs>
    <g id="Page-1" stroke="none" stroke-width="1" fill="none" fill-rule="evenodd">
        <g id="Group-2-Copy" transform="translate(4.000000, 4.000000)">
            <path d="M60,0 L242,0 C275.137085,-6.08718376e-15 302,26.862915 302,60 L302,120.520215 L302,120.520215 L302,242 C302,275.137085 275.137085,302 242,302 L181.445565,302 L181.445565,302 L60,302 C26.862915,302 1.82689772e-14,275.137085 0,242 L0,60 C-1.11635499e-14,26.862915 26.862915,6.08718376e-15 60,0 Z" id="Rectangle-Copy-13" stroke="#000000" stroke-width="8" fill-opacity="0.0788625437" fill="#000000"></path>
            <g id="Group-Copy" transform="translate(197.000000, 161.000000)" fill-rule="nonzero">
                <g id="Group" transform="translate(40.000000, 77.000000)" fill="#39CEFD">
                    <polygon id="Path" points="26.5876701 72.9575123 99.604059 0 46.5118053 0 0.0498518814 46.430526"></polygon>
                </g>
                <g id="Group" fill="#39CEFD">
                    <polygon id="Path" points="0.0999712644 87.0505324 86.6251006 0.117183409 139.859799 0.117183409 26.7256513 113.801831"></polygon>
                </g>
                <g id="Group" transform="translate(65.000000, 125.000000)" fill="#03569B">
                    <polygon id="Path" points="20.1657249 46.8344673 73.9017474 46.8344673 26.8764206 0.116960853 0 26.8174527"></polygon>
                </g>
                <g id="Group" transform="translate(67.000000, 125.000000)" fill="url(#linearGradient-1)">
                    <polygon id="Path" points="26.2686272 0.116950698 0 26.8151243 38.9591029 13.0984781"></polygon>
                </g>
                <g id="Group" transform="translate(39.000000, 99.000000)" fill="#39CEFD">
                    <polygon id="Path" points="0.0494946297 26.9784535 26.4136341 0.134388312 52.7777735 26.9784535 26.4136341 53.8393173"></polygon>
                </g>
            </g>
        </g>
    </g>
</svg>